<?xml version="1.0" encoding="utf-8" ?>
<!DOCTYPE svg PUBLIC "-//W3C//DTD SVG 1.1//EN" "http://www.w3.org/Graphics/SVG/1.1/DTD/svg11.dtd">
<svg height="244" version="1.1" width="450" xmlns="http://www.w3.org/2000/svg">
<rect fill="#ffffff" height="216" stroke="#ffffff" stroke-width="1" width="180" x="14" y="14"/>
<rect fill="none" height="216" stroke="#000000" stroke-width="1" width="180" x="14" y="14"/>
<text font-family="Dialog" font-size="12" x="87" y="27">
Track</text>
<rect fill="#000000" height="1" stroke="#000000" stroke-width="1" width="180" x="14" y="37"/>
<text font-family="Dialog" font-size="12" x="18" y="51">
startTime : Date</text>
<text font-family="Dialog" font-size="12" x="18" y="67">
endTime : Date</text>
<text font-family="Dialog" font-size="12" x="18" y="83">
startBattery : double</text>
<text font-family="Dialog" font-size="12" x="18" y="99">
endBattery : double</text>
<text font-family="Dialog" font-size="12" x="18" y="115">
waypoints : List&lt;Waypoint&gt;</text>
<rect fill="#000000" height="1" stroke="#000000" stroke-width="1" width="180" x="14" y="125"/>
<text font-family="Dialog" font-size="12" x="18" y="139">
startTrack()</text>
<text font-family="Dialog" font-size="12" x="18" y="155">
endTrack()</text>
<text font-family="Dialog" font-size="12" x="18" y="171">
getDistance()</text>
<text font-family="Dialog" font-size="12" x="18" y="187">
getBatteryUsed()</text>
<text font-family="Dialog" font-size="12" x="18" y="203">
getHeightDifference(mode)</text>
<text font-family="Dialog" font-size="12" x="18" y="219">
getTimeUsed(TimeUnit)</text>
<rect fill="#ffffff" height="120" stroke="#ffffff" stroke-width="1" width="166" x="270" y="54"/>
<rect fill="none" height="120" stroke="#000000" stroke-width="1" width="166" x="270" y="54"/>
<text font-family="Dialog" font-size="12" x="324" y="67">
Waypoint</text>
<rect fill="#000000" height="1" stroke="#000000" stroke-width="1" width="166" x="270" y="77"/>
<text font-family="Dialog" font-size="12" x="274" y="91">
longitude : double</text>
<text font-family="Dialog" font-size="12" x="274" y="107">
latitude : double</text>
<text font-family="Dialog" font-size="12" x="274" y="123">
altitude : double</text>
<text font-family="Dialog" font-size="12" x="274" y="139">
timestamp : Date</text>
<rect fill="#000000" height="1" stroke="#000000" stroke-width="1" width="166" x="270" y="149"/>
<text font-family="Dialog" font-size="12" x="274" y="163">
getDistanceTo(Waypoint)</text>
<polyline fill="none" points="193,118 270,118" stroke="#000000" stroke-width="1"/>
<text font-family="Dialog" font-size="12" x="202" y="132">
1</text>
<text font-family="Dialog" font-size="12" x="256" y="132">
n</text>
</svg>
