<?xml version="1.0" encoding="UTF-8" standalone="no"?>
<!-- Created with Inkscape (http://www.inkscape.org/) -->

<svg
   xmlns:dc="http://purl.org/dc/elements/1.1/"
   xmlns:cc="http://creativecommons.org/ns#"
   xmlns:rdf="http://www.w3.org/1999/02/22-rdf-syntax-ns#"
   xmlns:svg="http://www.w3.org/2000/svg"
   xmlns="http://www.w3.org/2000/svg"
   xmlns:sodipodi="http://sodipodi.sourceforge.net/DTD/sodipodi-0.dtd"
   xmlns:inkscape="http://www.inkscape.org/namespaces/inkscape"
   id="svg2"
   version="1.1"
   inkscape:version="0.48.3.1 r9886"
   width="743.75"
   height="63.75"
   xml:space="preserve"
   sodipodi:docname="batteryusage.svg"><metadata
     id="metadata8"><rdf:RDF><cc:Work
         rdf:about=""><dc:format>image/svg+xml</dc:format><dc:type
           rdf:resource="http://purl.org/dc/dcmitype/StillImage" /><dc:title></dc:title></cc:Work></rdf:RDF></metadata><defs
     id="defs6"><clipPath
       clipPathUnits="userSpaceOnUse"
       id="clipPath16"><path
         d="m 0,0 595.2,0 0,51 L 0,51 0,0 z"
         clip-rule="evenodd"
         id="path18" /></clipPath></defs><sodipodi:namedview
     pagecolor="#ffffff"
     bordercolor="#666666"
     borderopacity="1"
     objecttolerance="10"
     gridtolerance="10"
     guidetolerance="10"
     inkscape:pageopacity="0"
     inkscape:pageshadow="2"
     inkscape:window-width="640"
     inkscape:window-height="480"
     id="namedview4"
     showgrid="false"
     inkscape:zoom="0.45445378"
     inkscape:cx="371.875"
     inkscape:cy="31.875"
     inkscape:window-x="0"
     inkscape:window-y="27"
     inkscape:window-maximized="0"
     inkscape:current-layer="g10" /><g
     id="g10"
     inkscape:groupmode="layer"
     inkscape:label="batteryusage"
     transform="matrix(1.25,0,0,-1.25,0,63.75)"><g
       id="g12"><g
         id="g14"
         clip-path="url(#clipPath16)" /></g><g
       id="g20"><text
         transform="matrix(1,0,0,-1,1,41.4)"
         id="text22"><tspan
           style="fill:#000000;fill-opacity:1;fill-rule:nonzero;stroke:none;font-family:Liberation Sans;font-variant:normal;font-weight:bold;font-size:10;writing-mode:lr;-inkscape-font-specification:LiberationSans-Bold"
           x="0 2.79 8.89 12.19 17.78 21.67 27.26 32.85 35.64 38.43 41.73 50.62 56.21"
           y="0"
           sodipodi:role="line"
           id="tspan24">Interval (ms)</tspan></text>
</g><g
       id="g26"><text
         transform="matrix(1,0,0,-1,210.6,41.4)"
         id="text28"><tspan
           style="fill:#000000;fill-opacity:1;fill-rule:nonzero;stroke:none;font-family:Liberation Sans;font-variant:normal;font-weight:bold;font-size:10;writing-mode:lr;-inkscape-font-specification:LiberationSans-Bold"
           x="0 6.69 12.79 15.58 21.68 24.98 30.57 33.36 40.56 46.15 52.25 55.55 61.65 65.54 71.13"
           y="0"
           sodipodi:role="line"
           id="tspan30">Points Captured</tspan></text>
</g><g
       id="g32"><text
         transform="matrix(1,0,0,-1,34.6,29.4)"
         id="text34"><tspan
           style="fill:#000000;fill-opacity:1;fill-rule:nonzero;stroke:none;font-family:Liberation Sans;font-variant:normal;font-weight:normal;font-size:10;writing-mode:lr;-inkscape-font-specification:LiberationSans"
           x="0 5.59 11.18 16.77 22.36"
           y="0"
           sodipodi:role="line"
           id="tspan36">10000</tspan></text>
</g><g
       id="g38"><text
         transform="matrix(1,0,0,-1,76,29.4)"
         id="text40"><tspan
           style="fill:#000000;fill-opacity:1;fill-rule:nonzero;stroke:none;font-family:Liberation Sans;font-variant:normal;font-weight:normal;font-size:10;writing-mode:lr;-inkscape-font-specification:LiberationSans"
           x="0 5.59 11.18 16.77 19.56 25.15 30.74 36.33 41.92 47.51 53.1"
           y="0"
           sodipodi:role="line"
           id="tspan42">180.8857666</tspan></text>
</g><g
       id="g44"><text
         transform="matrix(1,0,0,-1,144.2,29.4)"
         id="text46"><tspan
           style="fill:#000000;fill-opacity:1;fill-rule:nonzero;stroke:none;font-family:Liberation Sans;font-variant:normal;font-weight:normal;font-size:10;writing-mode:lr;-inkscape-font-specification:LiberationSans"
           x="0 5.59 8.38 13.97 19.56 25.15 30.74 36.33 41.92 47.51 53.1 58.69"
           y="0"
           sodipodi:role="line"
           id="tspan48">0.0799999999</tspan></text>
</g><g
       id="g50"><text
         transform="matrix(1,0,0,-1,273.4,29.4)"
         id="text52"><tspan
           style="fill:#000000;fill-opacity:1;fill-rule:nonzero;stroke:none;font-family:Liberation Sans;font-variant:normal;font-weight:normal;font-size:10;writing-mode:lr;-inkscape-font-specification:LiberationSans"
           x="0 5.59 11.18"
           y="0"
           sodipodi:role="line"
           id="tspan54">863</tspan></text>
</g><g
       id="g56"><text
         transform="matrix(1,0,0,-1,372.5,29.4)"
         id="text58"><tspan
           style="fill:#000000;fill-opacity:1;fill-rule:nonzero;stroke:none;font-family:Liberation Sans;font-variant:normal;font-weight:normal;font-size:10;writing-mode:lr;-inkscape-font-specification:LiberationSans"
           x="0 5.59 8.38 13.97 19.56 25.15 30.74 36.33 41.92 47.51 53.1 58.69"
           y="0"
           sodipodi:role="line"
           id="tspan60">0.4422680756</tspan></text>
</g><g
       id="g62"><text
         transform="matrix(1,0,0,-1,532.6,29.4)"
         id="text64"><tspan
           style="fill:#000000;fill-opacity:1;fill-rule:nonzero;stroke:none;font-family:Liberation Sans;font-variant:normal;font-weight:normal;font-size:10;writing-mode:lr;-inkscape-font-specification:LiberationSans"
           x="0 5.59 8.38 13.97 19.56 25.15 30.74 36.33 41.92 47.51 53.1"
           y="0"
           sodipodi:role="line"
           id="tspan66">0.092699884</tspan></text>
</g><g
       id="g68"><text
         transform="matrix(1,0,0,-1,40.2,17.3)"
         id="text70"><tspan
           style="fill:#000000;fill-opacity:1;fill-rule:nonzero;stroke:none;font-family:Liberation Sans;font-variant:normal;font-weight:normal;font-size:10;writing-mode:lr;-inkscape-font-specification:LiberationSans"
           x="0 5.59 11.18 16.77"
           y="0"
           sodipodi:role="line"
           id="tspan72">5000</tspan></text>
</g><g
       id="g74"><text
         transform="matrix(1,0,0,-1,92.8,17.3)"
         id="text76"><tspan
           style="fill:#000000;fill-opacity:1;fill-rule:nonzero;stroke:none;font-family:Liberation Sans;font-variant:normal;font-weight:normal;font-size:10;writing-mode:lr;-inkscape-font-specification:LiberationSans"
           x="0 5.59 11.18 16.77 19.56 25.15 30.74 36.33"
           y="0"
           sodipodi:role="line"
           id="tspan78">182.2862</tspan></text>
</g><g
       id="g80"><text
         transform="matrix(1,0,0,-1,161,17.3)"
         id="text82"><tspan
           style="fill:#000000;fill-opacity:1;fill-rule:nonzero;stroke:none;font-family:Liberation Sans;font-variant:normal;font-weight:normal;font-size:10;writing-mode:lr;-inkscape-font-specification:LiberationSans"
           x="0 5.59 8.38 13.97 19.56 25.15 30.74 36.33 41.92"
           y="0"
           sodipodi:role="line"
           id="tspan84">0.0799999</tspan></text>
</g><g
       id="g86"><text
         transform="matrix(1,0,0,-1,267.8,17.3)"
         id="text88"><tspan
           style="fill:#000000;fill-opacity:1;fill-rule:nonzero;stroke:none;font-family:Liberation Sans;font-variant:normal;font-weight:normal;font-size:10;writing-mode:lr;-inkscape-font-specification:LiberationSans"
           x="0 5.59 11.18 16.77"
           y="0"
           sodipodi:role="line"
           id="tspan90">2180</tspan></text>
</g><g
       id="g92"><text
         transform="matrix(1,0,0,-1,372.5,17.3)"
         id="text94"><tspan
           style="fill:#000000;fill-opacity:1;fill-rule:nonzero;stroke:none;font-family:Liberation Sans;font-variant:normal;font-weight:normal;font-size:10;writing-mode:lr;-inkscape-font-specification:LiberationSans"
           x="0 5.59 8.38 13.97 19.56 25.15 30.74 36.33 41.92 47.51 53.1 58.69"
           y="0"
           sodipodi:role="line"
           id="tspan96">0.4388697554</tspan></text>
</g><g
       id="g98"><text
         transform="matrix(1,0,0,-1,527,17.3)"
         id="text100"><tspan
           style="fill:#000000;fill-opacity:1;fill-rule:nonzero;stroke:none;font-family:Liberation Sans;font-variant:normal;font-weight:normal;font-size:10;writing-mode:lr;-inkscape-font-specification:LiberationSans"
           x="0 5.59 8.38 13.97 19.56 25.15 30.74 36.33 41.92 47.51 53.1 58.69"
           y="0"
           sodipodi:role="line"
           id="tspan102">0.0366972018</tspan></text>
</g><g
       id="g104"><text
         transform="matrix(1,0,0,-1,40.2,5.2)"
         id="text106"><tspan
           style="fill:#000000;fill-opacity:1;fill-rule:nonzero;stroke:none;font-family:Liberation Sans;font-variant:normal;font-weight:normal;font-size:10;writing-mode:lr;-inkscape-font-specification:LiberationSans"
           x="0 5.59 11.18 16.77"
           y="0"
           sodipodi:role="line"
           id="tspan108">1000</tspan></text>
</g><g
       id="g110"><text
         transform="matrix(1,0,0,-1,76,5.2)"
         id="text112"><tspan
           style="fill:#000000;fill-opacity:1;fill-rule:nonzero;stroke:none;font-family:Liberation Sans;font-variant:normal;font-weight:normal;font-size:10;writing-mode:lr;-inkscape-font-specification:LiberationSans"
           x="0 5.59 11.18 16.77 19.56 25.15 30.74 36.33 41.92 47.51 53.1"
           y="0"
           sodipodi:role="line"
           id="tspan114">183.6950333</tspan></text>
</g><g
       id="g116"><text
         transform="matrix(1,0,0,-1,161,5.2)"
         id="text118"><tspan
           style="fill:#000000;fill-opacity:1;fill-rule:nonzero;stroke:none;font-family:Liberation Sans;font-variant:normal;font-weight:normal;font-size:10;writing-mode:lr;-inkscape-font-specification:LiberationSans"
           x="0 5.59 8.38 13.97 19.56 25.15 30.74 36.33 41.92"
           y="0"
           sodipodi:role="line"
           id="tspan120">0.0999999</tspan></text>
</g><g
       id="g122"><text
         transform="matrix(1,0,0,-1,262.2,5.2)"
         id="text124"><tspan
           style="fill:#000000;fill-opacity:1;fill-rule:nonzero;stroke:none;font-family:Liberation Sans;font-variant:normal;font-weight:normal;font-size:10;writing-mode:lr;-inkscape-font-specification:LiberationSans"
           x="0 5.59 11.18 16.77 22.36"
           y="0"
           sodipodi:role="line"
           id="tspan126">10948</tspan></text>
</g><g
       id="g128"><text
         transform="matrix(1,0,0,-1,372.5,5.2)"
         id="text130"><tspan
           style="fill:#000000;fill-opacity:1;fill-rule:nonzero;stroke:none;font-family:Liberation Sans;font-variant:normal;font-weight:normal;font-size:10;writing-mode:lr;-inkscape-font-specification:LiberationSans"
           x="0 5.59 8.38 13.97 19.56 25.15 30.74 36.33 41.92 47.51 53.1 58.69"
           y="0"
           sodipodi:role="line"
           id="tspan132">0.5443799879</tspan></text>
</g><g
       id="g134"><text
         transform="matrix(1,0,0,-1,527,5.2)"
         id="text136"><tspan
           style="fill:#000000;fill-opacity:1;fill-rule:nonzero;stroke:none;font-family:Liberation Sans;font-variant:normal;font-weight:normal;font-size:10;writing-mode:lr;-inkscape-font-specification:LiberationSans"
           x="0 5.59 8.38 13.97 19.56 25.15 30.74 36.33 41.92 47.51 53.1 58.69"
           y="0"
           sodipodi:role="line"
           id="tspan138">0.0091340793</tspan></text>
</g><g
       id="g140"><text
         transform="matrix(1,0,0,-1,64.6,41.4)"
         id="text142"><tspan
           style="fill:#000000;fill-opacity:1;fill-rule:nonzero;stroke:none;font-family:Liberation Sans;font-variant:normal;font-weight:bold;font-size:10;writing-mode:lr;-inkscape-font-specification:LiberationSans-Bold"
           x="0 7.2 13.3 19.4 22.7 25.49 34.38 39.97 42.76 46.06 54.95 57.74 63.84"
           y="0"
           sodipodi:role="line"
           id="tspan144">Runtime (min)</tspan></text>
</g><g
       id="g146"><text
         transform="matrix(1,0,0,-1,136.8,41.4)"
         id="text148"><tspan
           style="fill:#000000;fill-opacity:1;fill-rule:nonzero;stroke:none;font-family:Liberation Sans;font-variant:normal;font-weight:bold;font-size:10;writing-mode:lr;-inkscape-font-specification:LiberationSans-Bold"
           x="0 7.2 12.79 16.09 19.39 24.98 28.87 34.46 40.56 46.15 51.74 57.84"
           y="0"
           sodipodi:role="line"
           id="tspan150">Batteryusage</tspan></text>
</g><g
       id="g152"><text
         transform="matrix(1,0,0,-1,292.2,41.4)"
         id="text154"><tspan
           style="fill:#000000;fill-opacity:1;fill-rule:nonzero;stroke:none;font-family:Liberation Sans;font-variant:normal;font-weight:bold;font-size:10;writing-mode:lr;-inkscape-font-specification:LiberationSans-Bold"
           x="0 7.2 12.79 16.09 19.39 24.98 28.87 34.46 40.56 46.15 51.74 57.84 63.43 66.22 74.52 77.31 83.41 86.2 89.5 96.19 100.08 106.18 115.07 117.86 120.65 123.44 129.03"
           y="0"
           sodipodi:role="line"
           id="tspan156">Batteryusage/Min (Promille)</tspan></text>
</g><g
       id="g158"><text
         transform="matrix(1,0,0,-1,438.9,41.4)"
         id="text160"><tspan
           style="fill:#000000;fill-opacity:1;fill-rule:nonzero;stroke:none;font-family:Liberation Sans;font-variant:normal;font-weight:bold;font-size:10;writing-mode:lr;-inkscape-font-specification:LiberationSans-Bold"
           x="0 7.2 12.79 16.09 19.39 24.98 28.87 34.46 40.56 46.15 51.74 57.84 63.43 66.22 72.91 79.01 81.8 87.9 91.2 93.99 97.29 103.98 107.87 113.97 122.86 125.65 128.44 131.23 136.82"
           y="0"
           sodipodi:role="line"
           id="tspan162">Batteryusage/Point (Promille)</tspan></text>
</g><path
       d="m 63.5,51 0,-48.8"
       style="fill:none;stroke:#000000;stroke-opacity:1;stroke-width:0.1;stroke-linecap:butt;stroke-linejoin:miter;stroke-miterlimit:10;stroke-dasharray:none"
       id="path164" /><path
       d="m 135.7,51 0,-48.8"
       style="fill:none;stroke:#000000;stroke-opacity:1;stroke-width:0.1;stroke-linecap:butt;stroke-linejoin:miter;stroke-miterlimit:10;stroke-dasharray:none"
       id="path166" /><path
       d="m 209.5,51 0,-48.8"
       style="fill:none;stroke:#000000;stroke-opacity:1;stroke-width:0.1;stroke-linecap:butt;stroke-linejoin:miter;stroke-miterlimit:10;stroke-dasharray:none"
       id="path168" /><path
       d="m 291.1,51 0,-48.8"
       style="fill:none;stroke:#000000;stroke-opacity:1;stroke-width:0.1;stroke-linecap:butt;stroke-linejoin:miter;stroke-miterlimit:10;stroke-dasharray:none"
       id="path170" /><path
       d="m 437.8,51 0,-48.8"
       style="fill:none;stroke:#000000;stroke-opacity:1;stroke-width:0.1;stroke-linecap:butt;stroke-linejoin:miter;stroke-miterlimit:10;stroke-dasharray:none"
       id="path172" /><path
       d="m 592.3,51 0,-48.8"
       style="fill:none;stroke:#000000;stroke-opacity:1;stroke-width:0.1;stroke-linecap:butt;stroke-linejoin:miter;stroke-miterlimit:10;stroke-dasharray:none"
       id="path174" /><path
       d="m 0,38.5 592.3,0"
       style="fill:none;stroke:#000000;stroke-opacity:1;stroke-width:0.1;stroke-linecap:butt;stroke-linejoin:miter;stroke-miterlimit:10;stroke-dasharray:none"
       id="path176" /><path
       d="m 0,26.4 592.3,0"
       style="fill:none;stroke:#000000;stroke-opacity:1;stroke-width:0.1;stroke-linecap:butt;stroke-linejoin:miter;stroke-miterlimit:10;stroke-dasharray:none"
       id="path178" /><path
       d="m 0,14.3 592.3,0"
       style="fill:none;stroke:#000000;stroke-opacity:1;stroke-width:0.1;stroke-linecap:butt;stroke-linejoin:miter;stroke-miterlimit:10;stroke-dasharray:none"
       id="path180" /><path
       d="m 0,2.2 592.3,0"
       style="fill:none;stroke:#000000;stroke-opacity:1;stroke-width:0.1;stroke-linecap:butt;stroke-linejoin:miter;stroke-miterlimit:10;stroke-dasharray:none"
       id="path182" /><path
       d="m -0.1,2.2 592.4,0 0,49 -592.4,0 0,-49 z"
       style="fill:none;stroke:#000000;stroke-opacity:1;stroke-width:0.1;stroke-linecap:butt;stroke-linejoin:miter;stroke-miterlimit:10;stroke-dasharray:none"
       id="path184" /></g></svg>